<svg width="79" height="63" viewBox="0 0 79 63" fill="none" xmlns="http://www.w3.org/2000/svg">
<path fill-rule="evenodd" clip-rule="evenodd" d="M0 33.5V29.5C4.69442 29.5 8.5 25.6944 8.5 21V6.74286C8.5 3.01888 11.5189 0 15.2429 0H62C66.4183 0 70 3.58172 70 8V20.2842C70 25.2548 74.0294 29.2842 79 29.2842V33.5C74.0294 33.5 70 37.5294 70 42.5V55C70 59.4183 66.4183 63 62 63H15.2429C11.5189 63 8.5 59.9811 8.5 56.2571V42C8.5 37.3056 4.69442 33.5 0 33.5ZM39.5236 14H27V50.0436H39.3709C41.1358 50.0436 42.7818 49.823 44.3091 49.3818C45.8364 48.9406 47.177 48.2958 48.3309 47.4473C49.4849 46.5988 50.3842 45.5636 51.0291 44.3418C51.7079 43.0861 52.0473 41.6436 52.0473 40.0145C52.0473 38.7927 51.8436 37.6558 51.4364 36.6036C51.0291 35.5515 50.4691 34.6352 49.7564 33.8545C49.0776 33.04 48.263 32.3952 47.3127 31.92C46.3624 31.4109 45.3442 31.1224 44.2582 31.0545V30.9527C46.0909 30.3418 47.5842 29.3915 48.7382 28.1018C49.8921 26.7782 50.4691 25.0812 50.4691 23.0109C50.4691 21.4836 50.1806 20.16 49.6036 19.04C49.0606 17.8861 48.297 16.9527 47.3127 16.24C46.3624 15.4933 45.2085 14.9333 43.8509 14.56C42.5273 14.1867 41.0849 14 39.5236 14ZM38.5564 28.9673H31.8873V18.2764H39.5745C41.543 18.2764 42.9855 18.8024 43.9018 19.8545C44.8182 20.9067 45.2764 22.1455 45.2764 23.5709C45.2764 24.5552 45.0897 25.3867 44.7164 26.0655C44.377 26.7442 43.9018 27.3042 43.2909 27.7455C42.68 28.1867 41.9673 28.5091 41.1527 28.7127C40.3382 28.8824 39.4727 28.9673 38.5564 28.9673ZM39.0655 45.7673H31.8873V33.2436H39.1164C41.4921 33.2436 43.3758 33.7867 44.7673 34.8727C46.1588 35.9249 46.8545 37.52 46.8545 39.6582C46.8545 40.9479 46.583 41.983 46.04 42.7636C45.497 43.5442 44.8352 44.1721 44.0545 44.6473C43.2739 45.0885 42.4255 45.3939 41.5091 45.5636C40.6267 45.6994 39.8121 45.7673 39.0655 45.7673Z" fill="white"/>
</svg>
