<svg width="46" height="63" viewBox="0 0 46 63" fill="none" xmlns="http://www.w3.org/2000/svg">
<path d="M21.5 8V0H18.5V5H15V8H21.5Z" fill="white"/>
<path d="M30 2V0H22.5V2L26.5 6H22.5V8H30V6L26.5 2H30Z" fill="white"/>
<path fill-rule="evenodd" clip-rule="evenodd" d="M0 12H45.4364L41.4182 58.0545L22.7182 63L4.17273 58.0545L0 12ZM16.0726 21.4273H21.018V53.2636L7.2635 49.5545V44.1455L16.0726 46.7727V21.4273ZM38.1725 26.3727L38.6361 21.4273H24.4179V40.7455L32.4543 39.5091L31.8361 45.8455L24.4179 48.0091V53.2636L36.1634 50.0182L37.7088 33.7909L29.3634 35.0273L29.5179 26.3727H38.1725Z" fill="#EDEDED"/>
<path fill-rule="evenodd" clip-rule="evenodd" d="M41.418 15.0909H23.1816V58.3636L38.018 54.3455L41.418 15.0909ZM38.1725 26.5273L38.6361 21.5818H24.4179V40.9L32.4543 39.6636L31.8361 46L24.4179 48.1636V53.4182L36.1634 50.1727L37.7088 33.9455L29.3634 35.1818L29.5179 26.5273H38.1725Z" fill="white"/>
</svg>
